<?xml version="1.0" encoding="UTF-8"?><svg id="uuid-8dbbfa13-0cb0-470c-b08b-9a8b1eb0bee5" xmlns="http://www.w3.org/2000/svg" viewBox="0 0 244.33 45.81"><defs><style>.uuid-7761c3f7-6b85-4c69-98cc-ad15d8980fa2{fill:#d12b38;}</style></defs><g><polygon points="106.19 18.74 109.43 18.28 109.43 9.94 115.91 9.94 115.91 6.7 99.7 6.7 99.7 9.94 106.19 9.94 106.19 18.74"/><polygon points="115.91 17.35 115.91 13.18 112.67 13.18 112.67 17.81 115.91 17.35"/><polygon points="138.6 28.46 135.36 28 135.36 35.87 128.88 35.87 128.88 39.12 145.08 39.12 145.08 35.87 138.6 35.87 138.6 28.46"/><polygon points="128.88 27.07 128.88 32.63 132.12 32.63 132.12 27.54 128.88 27.07"/><polygon points="109.43 35.87 115.91 35.87 115.91 39.11 99.71 39.11 99.71 35.87 106.19 35.87 106.19 28.46 109.43 28 109.43 35.87"/><polygon points="112.67 27.54 115.91 27.07 115.91 32.63 112.67 32.63 112.67 27.54"/><polygon points="132.12 17.8 128.88 17.34 128.88 13.18 132.12 13.18 132.12 17.8"/><polygon points="145.09 6.7 145.09 9.94 138.6 9.94 138.6 18.73 135.36 18.27 135.36 9.94 128.88 9.94 128.88 6.7 145.09 6.7"/><polygon class="uuid-7761c3f7-6b85-4c69-98cc-ad15d8980fa2" points="138.6 21.98 145.09 22.9 145.09 26.15 122.4 22.9 115.91 23.83 112.67 24.29 109.43 24.76 106.19 25.22 99.71 26.15 99.71 22.9 122.4 19.66 128.88 20.59 132.12 21.05 138.6 21.97 138.6 21.98"/></g><g><polygon points="16.35 23.93 8.22 23.93 8.22 16.3 5.89 16.3 5.89 30.86 8.22 30.86 8.22 26.1 16.35 26.1 16.35 30.86 18.69 30.86 18.69 16.3 16.35 16.3 16.35 23.93"/><path d="M27.95,16.3l-6.81,14.56h2.44l3.77-8.05c.18-.39,.35-.77,.5-1.15l.51-1.29c.07-.18,.13-.34,.18-.49,.07,.23,.17,.51,.28,.84l.4,1.13c.15,.4,.31,.79,.47,1.16l3.38,7.85h2.55l-6.3-14.56h-1.37Z"/><path d="M50.89,20.88c0-1.72-.67-2.96-2.01-3.7-1.06-.59-2.67-.88-4.78-.88h-6.02v14.56h2.34v-4.75h3.4c.66,0,1.3-.04,1.91-.13l2.4,4.87h2.69l-2.73-5.54c1.85-.85,2.79-2.35,2.79-4.44Zm-2.45,.12c0,1.13-.39,1.9-1.2,2.37-.67,.39-1.74,.58-3.17,.58h-3.65v-5.48h3.39c.61,0,1.21,.03,1.79,.1,1.91,.2,2.83,.99,2.83,2.43Z"/><path d="M67.3,20.88c0-1.72-.67-2.96-2.01-3.7-1.06-.59-2.67-.88-4.78-.88h-6.02v14.56h2.34v-4.75h3.4c.66,0,1.3-.04,1.91-.13l2.4,4.87h2.69l-2.73-5.54c1.85-.85,2.79-2.35,2.79-4.44Zm-2.45,.12c0,1.13-.39,1.9-1.19,2.37-.68,.39-1.74,.58-3.17,.58h-3.65v-5.48h3.39c.61,0,1.21,.03,1.79,.1,1.91,.2,2.83,.99,2.83,2.43Z"/><rect x="70.9" y="16.3" width="2.34" height="14.56"/><path d="M87.43,23.26c-.61-.37-1.65-.69-3.19-.98l-1.77-.31c-.56-.1-1.06-.22-1.49-.38-.89-.31-1.33-.76-1.33-1.39s.34-1.07,1.04-1.43c.92-.46,2.06-.58,3.38-.39,1.26,.17,2.37,.53,3.3,1.09l.25,.15,.87-2.09-.2-.11c-.44-.24-.88-.45-1.29-.61-1.16-.47-2.48-.71-3.92-.71-1.52,0-2.86,.37-3.98,1.1-1.29,.83-1.94,1.94-1.94,3.3,0,1.01,.36,1.82,1.08,2.42,.76,.64,2.03,1.1,3.9,1.42l1.42,.25c.46,.09,.88,.18,1.27,.28,1.27,.34,1.88,.9,1.88,1.72s-.36,1.4-1.1,1.79c-.34,.18-.74,.31-1.18,.39-.92,.16-1.77,.16-2.59,0-1.24-.25-2.47-.76-3.67-1.53l-.22-.14-1.11,1.99,.18,.13c.4,.3,.84,.57,1.31,.8,1.42,.7,2.97,1.06,4.59,1.06,1.74,0,3.2-.38,4.34-1.14,.59-.39,1.07-.89,1.43-1.49,.36-.61,.54-1.3,.54-2.06s-.15-1.39-.45-1.86Z"/></g><g><polygon points="166.02 23.93 157.89 23.93 157.89 16.3 155.56 16.3 155.56 30.86 157.89 30.86 157.89 26.1 166.02 26.1 166.02 30.86 168.36 30.86 168.36 16.3 166.02 16.3 166.02 23.93"/><path d="M184.02,17.04c-1.21-.62-2.53-.94-3.93-.94s-2.83,.33-4.06,.98c-.59,.31-1.14,.7-1.62,1.15-.49,.45-.91,.97-1.25,1.53-.35,.56-.62,1.19-.81,1.85-.19,.67-.28,1.46-.28,2.36s.21,1.83,.62,2.73c.41,.9,.98,1.68,1.7,2.32,.71,.64,1.55,1.15,2.5,1.51,.94,.36,1.88,.54,2.79,.54s1.7-.09,2.38-.26c1.37-.34,2.56-.97,3.54-1.88,1.56-1.45,2.34-3.29,2.34-5.5,0-1.39-.36-2.68-1.08-3.82-.7-1.09-1.66-1.96-2.84-2.57Zm1.47,6.69c0,1.46-.53,2.71-1.58,3.7-1.04,.98-2.33,1.48-3.82,1.48s-2.87-.53-3.95-1.59c-.5-.49-.91-1.07-1.2-1.74-.29-.66-.44-1.38-.44-2.13s.14-1.46,.42-2.08c.28-.63,.67-1.18,1.15-1.64,.49-.46,1.07-.83,1.72-1.09,.65-.26,1.44-.39,2.33-.39s1.75,.25,2.6,.74c.86,.49,1.53,1.15,2,1.96,.5,.85,.76,1.79,.76,2.78Z"/><polygon points="199.67 23.02 192.47 16.31 191.57 16.31 191.57 30.86 193.85 30.86 193.85 20.73 199.39 25.87 199.79 25.87 205.6 20.62 205.6 30.86 207.9 30.86 207.9 16.31 206.96 16.31 199.67 23.02"/><polygon points="214.34 23.93 222.05 23.93 222.05 21.76 214.34 21.76 214.34 18.47 223 18.47 223 16.3 212 16.3 212 30.86 223.19 30.86 223.19 28.69 214.34 28.69 214.34 23.93"/><path d="M237.99,24.51c-.29-.46-.75-.89-1.36-1.26-.61-.37-1.65-.69-3.19-.98l-1.77-.31c-.55-.1-1.06-.22-1.49-.38-.89-.31-1.33-.76-1.33-1.39s.34-1.07,1.04-1.43c.92-.46,2.06-.58,3.38-.39,1.26,.17,2.37,.53,3.3,1.09l.25,.15,.87-2.09-.2-.11c-.44-.24-.88-.45-1.29-.61-1.16-.47-2.47-.71-3.92-.71-1.52,0-2.86,.37-3.98,1.1-1.29,.83-1.94,1.94-1.94,3.3,0,1.01,.36,1.82,1.08,2.42,.76,.64,2.03,1.1,3.9,1.42l1.42,.25c.45,.09,.88,.18,1.27,.28,1.27,.34,1.88,.9,1.88,1.72s-.36,1.4-1.1,1.79c-.34,.18-.74,.31-1.18,.39-.92,.16-1.77,.16-2.59,0-1.24-.25-2.47-.76-3.67-1.53l-.22-.14-1.11,1.99,.18,.13c.4,.3,.84,.57,1.31,.8,1.42,.7,2.97,1.06,4.59,1.06,1.74,0,3.2-.38,4.34-1.14,.59-.39,1.07-.89,1.43-1.49,.36-.61,.54-1.3,.54-2.06s-.15-1.39-.45-1.86Z"/></g></svg>