<?xml version="1.0" encoding="UTF-8"?><svg id="uuid-4c35ebd5-7fd3-474a-9b8d-5741232d1eda" xmlns="http://www.w3.org/2000/svg" viewBox="0 0 57.29 45.81"><defs><style>.uuid-8545c7b0-6ce2-4085-8ea9-79d5c3e33f60{fill:#d12b38;}</style></defs><polygon points="12.44 18.74 15.68 18.28 15.68 9.94 22.16 9.94 22.16 6.7 5.95 6.7 5.95 9.94 12.44 9.94 12.44 18.74"/><polygon points="22.16 17.35 22.16 13.18 18.92 13.18 18.92 17.81 22.16 17.35"/><polygon points="44.85 28.46 41.61 28 41.61 35.87 35.13 35.87 35.13 39.12 51.33 39.12 51.33 35.87 44.85 35.87 44.85 28.46"/><polygon points="35.13 27.07 35.13 32.63 38.37 32.63 38.37 27.54 35.13 27.07"/><polygon points="15.68 35.87 22.16 35.87 22.16 39.11 5.96 39.11 5.96 35.87 12.44 35.87 12.44 28.46 15.68 28 15.68 35.87"/><polygon points="18.92 27.54 22.16 27.07 22.16 32.63 18.92 32.63 18.92 27.54"/><polygon points="38.37 17.8 35.13 17.34 35.13 13.18 38.37 13.18 38.37 17.8"/><polygon points="51.34 6.7 51.34 9.94 44.85 9.94 44.85 18.73 41.61 18.27 41.61 9.94 35.13 9.94 35.13 6.7 51.34 6.7"/><polygon class="uuid-8545c7b0-6ce2-4085-8ea9-79d5c3e33f60" points="44.85 21.98 51.34 22.9 51.34 26.15 28.65 22.9 22.16 23.83 18.92 24.29 15.68 24.76 12.44 25.22 5.96 26.15 5.96 22.9 28.65 19.66 35.13 20.59 38.37 21.05 44.85 21.97 44.85 21.98"/></svg>